# xmcd
#
# Track frame offsets:
#	150
#	17202
#	33341
#	51084
#	78078
#	93596
#	112483
#	131696
#	149234
#	167249
#	183079
#	196436
#	213790
#	229023
#	247642
#	263121
#	280702
#	298630
#	319306
#
# Disc length: 4490 seconds
#
# Revision: 0
# Processed by: cddbd v1.4PL0 Copyright (c) Steve Scherf et al.
# Submitted via: dBpowerAMP V4.0
#
DISCID=17118813
DTITLE=PYX LAX - Apo Do Kai Apo Kei
DYEAR=2003
DGENRE=Greek Pop
TTITLE0=Xartina Fanaria
TTITLE1=Mia Bradia sto Leverkoyzen
TTITLE2=Notos
TTITLE3=Myrodia Kalokairioy
TTITLE4=Kapoies Pales Amarties
TTITLE5=Monaksia Moy Ola
TTITLE6=Arena
TTITLE7=Periergo Paixnidi
TTITLE8=Astin Na Leei
TTITLE9=Mh Les Tipota
TTITLE10=De Thelo Na Se Ksanado
TTITLE11=Mia zoh sto Risko
TTITLE12=Aspromayrh Zoh
TTITLE13=Ta Mployz ths agrias Nioths
TTITLE14=Thalassa
TTITLE15=Bromika filia
TTITLE16=O Paraksenos
TTITLE17=Axrista rologia
TTITLE18=Thelo ta matia tis na Ksexaso
EXTD=
EXTT0=
EXTT1=
EXTT2=
EXTT3=
EXTT4=
EXTT5=
EXTT6=
EXTT7=
EXTT8=
EXTT9=
EXTT10=
EXTT11=
EXTT12=
EXTT13=
EXTT14=
EXTT15=
EXTT16=
EXTT17=
EXTT18=
PLAYORDER=
